<?xml version="1.0" encoding="utf-8"?>
<!-- Generator: Adobe Illustrator 16.2.0, SVG Export Plug-In . SVG Version: 6.00 Build 0)  -->
<!DOCTYPE svg PUBLIC "-//W3C//DTD SVG 1.1//EN" "http://www.w3.org/Graphics/SVG/1.1/DTD/svg11.dtd">
<svg version="1.1"
	 id="Layer_1" xmlns:inkscape="http://www.inkscape.org/namespaces/inkscape" xmlns:cc="http://creativecommons.org/ns#" xmlns:sodipodi="http://sodipodi.sourceforge.net/DTD/sodipodi-0.dtd" xmlns:rdf="http://www.w3.org/1999/02/22-rdf-syntax-ns#" xmlns:svg="http://www.w3.org/2000/svg" xmlns:dc="http://purl.org/dc/elements/1.1/"
	 xmlns="http://www.w3.org/2000/svg" xmlns:xlink="http://www.w3.org/1999/xlink" x="0px" y="0px" width="27px" height="27px"
	 viewBox="242.5 242.5 27 27" style="enable-background:new 242.5 242.5 27 27;" xml:space="preserve">
<style type="text/css">
<![CDATA[
	.st0{fill:#FFFFFF;}
	.st1{fill:#045CFC;}
]]>
</style>
<g id="g4571">
	<path id="rect2987" class="st1" d="M245.9,242.5h20.3c1.9,0,3.4,1.5,3.4,3.4v20.3c0,1.9-1.5,3.4-3.4,3.4h-20.3
		c-1.9,0-3.4-1.5-3.4-3.4v-20.3C242.5,244,244,242.5,245.9,242.5z"/>
	<path id="Behance_4_" class="st0" d="M264.5,251.3h-5.3V250h5.3V251.3z M255.7,256.7c0.3,0.5,0.5,1.2,0.5,1.9
		c0,0.8-0.2,1.5-0.6,2.1c-0.2,0.4-0.6,0.8-0.9,1c-0.4,0.3-0.9,0.5-1.5,0.7c-0.6,0.1-1.2,0.2-1.9,0.2h-5.9v-13.1h6.3
		c1.6,0,2.7,0.5,3.4,1.4c0.4,0.6,0.6,1.2,0.6,2c0,0.8-0.2,1.4-0.6,1.9c-0.2,0.3-0.6,0.5-1,0.7C254.9,255.8,255.4,256.1,255.7,256.7
		L255.7,256.7z M248.5,254.6h2.8c0.6,0,1-0.1,1.4-0.3c0.4-0.2,0.5-0.6,0.5-1.2c0-0.6-0.2-1-0.7-1.2c-0.4-0.1-0.9-0.2-1.5-0.2h-2.4
		L248.5,254.6L248.5,254.6z M253.4,258.4c0-0.7-0.3-1.2-0.8-1.4c-0.3-0.1-0.8-0.2-1.3-0.2h-2.8v3.5h2.8c0.6,0,1-0.1,1.3-0.2
		C253.2,259.8,253.4,259.2,253.4,258.4z M266.5,256.3c0.1,0.4,0.1,1.1,0.1,1.9h-6.8c0,0.9,0.4,1.6,1,2c0.4,0.2,0.8,0.4,1.4,0.4
		c0.6,0,1-0.1,1.4-0.4c0.2-0.2,0.4-0.4,0.5-0.6h2.5c-0.1,0.6-0.4,1.1-0.9,1.7c-0.8,0.9-2,1.4-3.5,1.4c-1.3,0-2.4-0.4-3.3-1.2
		c-1-0.8-1.4-2-1.4-3.8c0-1.6,0.4-2.9,1.3-3.7c0.9-0.9,2-1.3,3.4-1.3c0.8,0,1.6,0.1,2.2,0.4c0.7,0.3,1.2,0.8,1.6,1.4
		C266.1,254.9,266.3,255.5,266.5,256.3L266.5,256.3z M264,256.5c0-0.7-0.3-1.1-0.7-1.5c-0.4-0.3-0.9-0.5-1.5-0.5
		c-0.6,0-1.1,0.2-1.5,0.5c-0.3,0.4-0.6,0.8-0.7,1.5H264L264,256.5z"/>
</g>
</svg>
