<svg version="1.1" id="Слой_1" xmlns="http://www.w3.org/2000/svg" xmlns:xlink="http://www.w3.org/1999/xlink" x="0px" y="0px"
	 width="277px" height="15px" viewBox="0 0 277 15" style="enable-background:new 0 0 277 15;" xml:space="preserve">
<g class="logo_g1">
	<path d="M51.7,9.3c1.5,0,2.8,1.2,2.8,2.7c0,1.5-1.3,2.7-2.8,2.7c-1.5,0-2.8-1.2-2.8-2.7C48.9,10.6,50.2,9.3,51.7,9.3z"/>
	<path d="M60.9,15C59,4,49.2,2.5,48.7,2.4L49.1,0c0.1,0,12.1,1.8,14.3,14.6L60.9,15z"/>
	<path d="M159.9,9.3c1.5,0,2.8,1.2,2.8,2.7c0,1.5-1.3,2.7-2.8,2.7c-1.5,0-2.8-1.2-2.8-2.7C157.1,10.6,158.3,9.3,159.9,9.3z"/>
	<path d="M169,15c-1.8-11-11.7-12.5-12.1-12.6l0.3-2.4c0.1,0,12.1,1.8,14.3,14.6L169,15z"/>
</g>
<g class="logo_g2">
	<path class="st0" d="M4,12.7V2.5h1.7V0.4H0v2.1h1.7v10.2H0v2.1h5.8v-2.1H4z"/>
	<path class="st0" d="M28.8,14.7l6.1-14.4h-2.5l-4.2,10.3L23.8,0.4h-2.5l6.1,14.4H28.8z"/>
	<path class="st0" d="M89.8,14.7V0.4h-2.3v10.1L79.8,0.4h-1.3v14.4h2.3V4.6l7.8,10.1H89.8z"/>
	<path class="st0" d="M142.7,14.7V0.4h-1.3l-5.9,7.3l-5.9-7.3h-1.3v14.4h2.3V4.5l5,6.1l4.9-6.1v10.2H142.7z"/>
	<path class="st0" d="M187.8,0.4v14.4h2.3V11h2.3c1.5,0,2,0.3,3.2,2.1l1.1,1.6h2.5l-1.4-2.1c-0.9-1.4-1.6-2.1-2.3-2.4
		c2.1-0.7,3.5-2.3,3.5-4.6c0-3.1-2.4-5.3-6.4-5.3H187.8z M190,2.5h2.8c2.2,0,4,1,4,3.2c0,2.3-1.8,3.2-4,3.2H190V2.5z"/>
	<path class="st0" d="M224.7,14.7h2.6l-3.5-5.3c-0.9-1.4-1.4-1.8-2-2.1c0.5-0.3,1-0.7,1.9-2l3.3-5.1h-2.6l-2.9,4.4
		c-0.8,1.2-1.2,1.6-2.4,1.6h-1.7v-6h-2.3v14.4h2.3V8.5h1.9c1.3,0,1.6,0.4,2.4,1.6L224.7,14.7z"/>
	<path class="st0" d="M246.9,12.7V2.5h1.7V0.4h-5.8v2.1h1.7v10.2h-1.7v2.1h5.8v-2.1H246.9z"/>
	<path class="st0" d="M277,14.7V0.4h-2.3v10.1l-7.8-10.1h-1.3v14.4h2.3V4.6l7.8,10.1H277z"/>
</g>
</svg>
